<svg xmlns="http://www.w3.org/2000/svg" data-name="Layer 1" viewBox="0 0 64 80" x="0px" y="0px"><title>Ecommerce</title><path d="M13.82,62H50.188a5.2,5.2,0,0,0,5.179-5.623l-3.1-37.6a5.226,5.226,0,0,0-5.18-4.769H43.172v-.843a11.168,11.168,0,0,0-22.336,0v.843H16.918a5.225,5.225,0,0,0-5.178,4.769l-3.1,37.6A5.2,5.2,0,0,0,13.82,62Zm9.016-48.833a9.168,9.168,0,0,1,18.336,0v.843H22.836Zm-9.1,5.776a3.214,3.214,0,0,1,3.185-2.933h3.918V23.3a1,1,0,0,0,2,0V16.01H41.172V23.3a1,1,0,0,0,2,0V16.01h3.917a3.214,3.214,0,0,1,3.186,2.933l3.1,37.6A3.2,3.2,0,0,1,50.188,60H13.82a3.2,3.2,0,0,1-3.186-3.459Z"/><text x="0" y="79" fill="#000000" font-size="5px" font-weight="bold" font-family="'Helvetica Neue', Helvetica, Arial-Unicode, Arial, Sans-serif">Created by Nur syifa fauziah</text><text x="0" y="84" fill="#000000" font-size="5px" font-weight="bold" font-family="'Helvetica Neue', Helvetica, Arial-Unicode, Arial, Sans-serif">from the Noun Project</text></svg>